<svg xmlns="http://www.w3.org/2000/svg" width="960" height="540" viewBox="0 0 960 540">
  <defs>
    <linearGradient id="g" x1="0" y1="0" x2="0" y2="1">
      <stop offset="0%" stop-color="#3d5a45"/>
      <stop offset="100%" stop-color="#1e3326"/>
    </linearGradient>
  </defs>
  <rect width="960" height="540" fill="url(#g)"/>
  <g>
    <rect x="280" y="140" width="70" height="70" rx="8" fill="#dfe8d8"/>
    <rect x="360" y="140" width="70" height="70" rx="8" fill="#b8c9a8"/>
    <rect x="440" y="140" width="70" height="70" rx="8" fill="#dfe8d8"/>
    <rect x="520" y="140" width="70" height="70" rx="8" fill="#2a2a2a"/>
    <rect x="280" y="220" width="70" height="70" rx="8" fill="#b8c9a8"/>
    <rect x="360" y="220" width="70" height="70" rx="8" fill="#dfe8d8"/>
    <text x="385" y="268" text-anchor="middle" fill="#1e3326" font-size="28" font-family="system-ui">1</text>
    <rect x="440" y="220" width="70" height="70" rx="8" fill="#c45c4a"/>
    <rect x="520" y="220" width="70" height="70" rx="8" fill="#b8c9a8"/>
    <rect x="280" y="300" width="70" height="70" rx="8" fill="#dfe8d8"/>
    <rect x="360" y="300" width="70" height="70" rx="8" fill="#b8c9a8"/>
    <rect x="440" y="300" width="70" height="70" rx="8" fill="#dfe8d8"/>
    <rect x="520" y="300" width="70" height="70" rx="8" fill="#b8c9a8"/>
  </g>
  <text x="80" y="100" fill="#eef5ea" font-family="Georgia,serif" font-size="48">扫雷试玩</text>
</svg>
