<svg xmlns="http://www.w3.org/2000/svg" width="960" height="540" viewBox="0 0 960 540">
  <defs>
    <linearGradient id="g" x1="0" y1="0" x2="1" y2="1">
      <stop offset="0%" stop-color="#1a4a6e"/>
      <stop offset="100%" stop-color="#0d2a40"/>
    </linearGradient>
  </defs>
  <rect width="960" height="540" fill="url(#g)"/>
  <g fill="none" stroke="#7eb8d8" stroke-width="2" opacity="0.35">
    <path d="M40 80 H920 M40 160 H920 M40 240 H920 M40 320 H920 M40 400 H920 M40 480 H920"/>
    <path d="M80 40 V500 M160 40 V500 M240 40 V500 M320 40 V500 M400 40 V500 M480 40 V500 M560 40 V500 M640 40 V500 M720 40 V500 M800 40 V500 M880 40 V500"/>
  </g>
  <rect x="220" y="250" width="180" height="36" rx="4" fill="#c9a227"/>
  <rect x="420" y="180" width="120" height="36" rx="4" fill="#c9a227"/>
  <circle cx="620" cy="300" r="14" fill="#e85d4c"/>
  <text x="80" y="100" fill="#e8f4fb" font-family="Georgia,serif" font-size="48">海战试玩</text>
</svg>
