<svg xmlns="http://www.w3.org/2000/svg" width="960" height="540" viewBox="0 0 960 540">
  <defs><linearGradient id="g" x1="0" y1="0" x2="1" y2="1"><stop offset="0%" stop-color="#4a3f32"/><stop offset="100%" stop-color="#1f1a14"/></linearGradient></defs>
  <rect width="960" height="540" fill="url(#g)"/>
  <g fill="#f3ebe0">
    <rect x="300" y="140" width="36" height="36"/><rect x="340" y="140" width="36" height="36"/><rect x="380" y="140" width="36" height="36"/>
    <rect x="260" y="180" width="36" height="36"/><rect x="340" y="180" width="36" height="36"/><rect x="420" y="180" width="36" height="36"/>
    <rect x="260" y="220" width="36" height="36"/><rect x="300" y="220" width="36" height="36"/><rect x="380" y="220" width="36" height="36"/><rect x="420" y="220" width="36" height="36"/>
    <rect x="260" y="260" width="36" height="36"/><rect x="340" y="260" width="36" height="36"/><rect x="420" y="260" width="36" height="36"/>
    <rect x="300" y="300" width="36" height="36"/><rect x="340" y="300" width="36" height="36"/><rect x="380" y="300" width="36" height="36"/>
  </g>
  <g fill="none" stroke="#c4b49a" stroke-width="1" opacity="0.5">
    <path d="M250 130 H470 V350 H250 Z"/>
  </g>
  <text x="520" y="250" fill="#f3ebe0" font-family="Georgia,serif" font-size="52">数织</text>
  <text x="520" y="295" fill="#c4b49a" font-family="system-ui" font-size="22">线索交叉 · 推理填格</text>
</svg>
